<svg xmlns="http://www.w3.org/2000/svg" width="225.998" height="30" viewBox="0 0 225.998 30">
  <g id="logotype-mobile.svg" transform="translate(0.001)">
    <g id="Сгруппировать_23" data-name="Сгруппировать 23">
      <rect id="Прямоугольник_1" data-name="Прямоугольник 1" width="4.945" height="4.935" transform="translate(-0.001 13.155) rotate(-44.996)" fill="#fff"/>
      <rect id="Прямоугольник_2" data-name="Прямоугольник 2" width="4.944" height="4.936" transform="translate(215.304 13.164) rotate(-44.999)" fill="#fff"/>
      <g id="Сгруппировать_14" data-name="Сгруппировать 14">
        <path id="Контур_30" data-name="Контур 30" d="M28.625,13.279H29.9V8.2h2V6.927H28.625Z" fill="#636466"/>
        <path id="Контур_31" data-name="Контур 31" d="M37.736,14.212V6.469a2.787,2.787,0,0,0-1.568-2.484A2.729,2.729,0,0,1,36.461,5.2V12.94a2.725,2.725,0,0,1-1.017,2.143,3.178,3.178,0,0,1,1.017,2.256v8.608a2.828,2.828,0,0,1-2.788,2.781H25.379V30h9.57a2.828,2.828,0,0,0,2.787-2.782V18.61a3.169,3.169,0,0,0-1.018-2.256A2.724,2.724,0,0,0,37.736,14.212Z" fill="#636466"/>
        <path id="Контур_32" data-name="Контур 32" d="M28.625,24.18H29.9V19.061h2V17.79H28.625Z" fill="#636466"/>
      </g>
      <g id="Сгруппировать_15" data-name="Сгруппировать 15">
        <path id="Контур_33" data-name="Контур 33" d="M48.818,24.18h1.275V8.2h2V6.927H48.818Z" fill="#636466"/>
        <path id="Контур_34" data-name="Контур 34" d="M56.36,3.986A2.7,2.7,0,0,1,56.653,5.2v20.75a2.827,2.827,0,0,1-2.787,2.781H47.087a2.721,2.721,0,0,1-1.216-.295A2.791,2.791,0,0,0,48.359,30h6.782a2.828,2.828,0,0,0,2.787-2.782V6.469A2.786,2.786,0,0,0,56.36,3.986Z" fill="#636466"/>
      </g>
      <g id="Сгруппировать_16" data-name="Сгруппировать 16">
        <path id="Контур_35" data-name="Контур 35" d="M69.01,13.279h1.274V8.2h2V6.927H69.01Z" fill="#636466"/>
        <path id="Контур_36" data-name="Контур 36" d="M76.5,18.8a2.726,2.726,0,0,0,1.581-2.482V6.469a2.778,2.778,0,0,0-1.569-2.5,2.767,2.767,0,0,1,.3,1.229v9.848a2.724,2.724,0,0,1-1.582,2.48l1.884,11.2H73.649L73.863,30h4.52Z" fill="#636466"/>
        <path id="Контур_37" data-name="Контур 37" d="M70.743,17.79H69.01v10.94H65.764V30h4.52V19.061h.672Z" fill="#636466"/>
      </g>
      <g id="Сгруппировать_17" data-name="Сгруппировать 17">
        <path id="Контур_38" data-name="Контур 38" d="M88.6,24.18h1.276V8.2h2V6.927H88.6Z" fill="#636466"/>
        <path id="Контур_39" data-name="Контур 39" d="M96.143,3.986A2.715,2.715,0,0,1,96.435,5.2v20.75a2.826,2.826,0,0,1-2.787,2.781H86.867a2.725,2.725,0,0,1-1.214-.294A2.79,2.79,0,0,0,88.14,30h6.782a2.828,2.828,0,0,0,2.787-2.782V6.469A2.783,2.783,0,0,0,96.143,3.986Z" fill="#636466"/>
      </g>
      <g id="Сгруппировать_18" data-name="Сгруппировать 18">
        <path id="Контур_40" data-name="Контур 40" d="M108.793,24.18h1.274V8.2h2V6.927h-3.277Z" fill="#636466"/>
        <path id="Контур_41" data-name="Контур 41" d="M116.335,3.986a2.716,2.716,0,0,1,.294,1.211v20.75a2.828,2.828,0,0,1-2.787,2.781h-8.295V30h9.568a2.828,2.828,0,0,0,2.787-2.782V6.469A2.784,2.784,0,0,0,116.335,3.986Z" fill="#636466"/>
      </g>
      <path id="Контур_42" data-name="Контур 42" d="M129.212,3.688V28.729h-3.247V30h4.521V3.688Z" fill="#636466"/>
      <g id="Сгруппировать_19" data-name="Сгруппировать 19">
        <path id="Контур_43" data-name="Контур 43" d="M149.329,3.688V28.729h-3.613L146.082,30h4.52V3.688Z" fill="#636466"/>
        <path id="Контур_44" data-name="Контур 44" d="M141.492,17.226v11.5h-3.245V30h4.518V21.648Z" fill="#636466"/>
      </g>
      <g id="Сгруппировать_20" data-name="Сгруппировать 20">
        <path id="Контур_45" data-name="Контур 45" d="M161.228,19.061h3.735v-1.27h-5.011a2.743,2.743,0,0,1-1.222-.291A2.775,2.775,0,0,0,161.228,19.061Z" fill="#636466"/>
        <path id="Контур_46" data-name="Контур 46" d="M162.958,20.752l-1.273.3V24.18h1.273Z" fill="#636466"/>
        <path id="Контур_47" data-name="Контур 47" d="M169.226,3.986a2.716,2.716,0,0,1,.294,1.211v5.338l-3.284.758v1.566l4.558-1.053V6.469A2.786,2.786,0,0,0,169.226,3.986Z" fill="#636466"/>
        <path id="Контур_48" data-name="Контур 48" d="M169.226,14.849a2.717,2.717,0,0,1,.294,1.212v9.885a2.827,2.827,0,0,1-2.787,2.781h-6.781a2.731,2.731,0,0,1-1.216-.295A2.792,2.792,0,0,0,161.228,30h6.78a2.826,2.826,0,0,0,2.786-2.782V17.331A2.78,2.78,0,0,0,169.226,14.849Z" fill="#636466"/>
        <path id="Контур_49" data-name="Контур 49" d="M161.686,6.927v6.353h1.273V8.2h2V6.927Z" fill="#636466"/>
      </g>
      <g id="Сгруппировать_21" data-name="Сгруппировать 21">
        <path id="Контур_50" data-name="Контур 50" d="M182.293,17.79h-.414v10.94h-3.248V30h4.522V20.524Z" fill="#636466"/>
        <path id="Контур_51" data-name="Контур 51" d="M191.552,3.688h-1.683l-3.811,11.847,4.219,13.195h-3.673l.352,1.122.038.149h4.557l-4.218-13.194Z" fill="#636466"/>
      </g>
      <path id="Контур_52" data-name="Контур 52" d="M202.183,3.688V28.729h-3.247V30h4.521V3.688Z" fill="#636466"/>
      <rect id="Прямоугольник_3" data-name="Прямоугольник 3" width="4.945" height="1.798" transform="translate(221.23 19.063) rotate(-45.009)" fill="#636466"/>
      <rect id="Прямоугольник_4" data-name="Прямоугольник 4" width="4.946" height="1.799" transform="translate(5.919 19.061) rotate(-45)" fill="#636466"/>
      <g id="Сгруппировать_22" data-name="Сгруппировать 22">
        <path id="Контур_53" data-name="Контур 53" d="M34.04,10.525a2.727,2.727,0,0,1-1.017,2.143,3.173,3.173,0,0,1,1.017,2.254v8.609a2.828,2.828,0,0,1-2.788,2.781H21.685V0h9.567A2.8,2.8,0,0,1,34.04,2.782ZM29.482,4.51H26.2v6.353h3.278Zm0,10.865H26.2v6.39h3.278Z" fill="#fff"/>
        <path id="Контур_54" data-name="Контур 54" d="M51.444,0a2.8,2.8,0,0,1,2.787,2.782V23.531a2.826,2.826,0,0,1-2.787,2.781h-6.78a2.8,2.8,0,0,1-2.788-2.781V2.782A2.78,2.78,0,0,1,44.664,0ZM49.674,4.51H46.4V21.764h3.279Z" fill="#fff"/>
        <path id="Контур_55" data-name="Контур 55" d="M70.167,26.312,68.322,15.375H66.588V26.312h-4.52V0h9.569a2.771,2.771,0,0,1,2.75,2.782V12.63a2.728,2.728,0,0,1-1.582,2.481l1.884,11.2Zm-.3-21.8H66.589v6.353h3.278Z" fill="#fff"/>
        <path id="Контур_56" data-name="Контур 56" d="M91.227,0a2.8,2.8,0,0,1,2.786,2.782V23.531a2.826,2.826,0,0,1-2.786,2.781h-6.78a2.8,2.8,0,0,1-2.787-2.781V2.782A2.778,2.778,0,0,1,84.447,0ZM89.457,4.51H86.179V21.764h3.279Z" fill="#fff"/>
        <path id="Контур_57" data-name="Контур 57" d="M111.42,0a2.8,2.8,0,0,1,2.786,2.782V23.531a2.826,2.826,0,0,1-2.786,2.781h-9.569V0Zm-1.771,4.51h-3.278V21.764h3.278Z" fill="#fff"/>
        <path id="Контур_58" data-name="Контур 58" d="M122.27,0h4.52V26.312h-4.52Z" fill="#fff"/>
        <path id="Контур_59" data-name="Контур 59" d="M146.906,0V26.312h-4.52l-3.315-11.5v11.5H134.55V0h4.484l3.314,10.789V0Z" fill="#fff"/>
        <path id="Контур_60" data-name="Контур 60" d="M164.312,10.863a2.8,2.8,0,0,1,2.787,2.781V23.53a2.828,2.828,0,0,1-2.787,2.781H157.53a2.8,2.8,0,0,1-2.786-2.781V18.117l4.52-1.054v4.7h3.277v-6.39h-5.01a2.777,2.777,0,0,1-2.786-2.782V2.782A2.777,2.777,0,0,1,157.53,0h6.782A2.8,2.8,0,0,1,167.1,2.782V8.119l-4.56,1.053V4.51h-3.277v6.353Z" fill="#fff"/>
        <path id="Контур_61" data-name="Контур 61" d="M183.636,13.119l4.221,13.193H183.3l-.038-.15-3.39-10.788h-.415V26.311h-4.52V0h4.52V10.863h.339L183.26,0h4.6Z" fill="#fff"/>
        <path id="Контур_62" data-name="Контур 62" d="M195.242,0h4.52V26.312h-4.52Z" fill="#fff"/>
      </g>
    </g>
  </g>
</svg>
