<svg xmlns="http://www.w3.org/2000/svg" width="369.979" height="100.002" viewBox="0 0 369.979 100.002"><g transform="translate(-0.004)"><path d="M120.034,11.328C127.231,8.92,127.778,0,120.686,0c-1.951,0-4.282,1.357-5.893,4.138L105.2,20.553a13.724,13.724,0,0,1-1.371,2,7.477,7.477,0,0,1,1.714-10.581l-1.44-1.8c-7.469,4.714-5.276,18.315,7.2,18.315C121.954,28.49,126.887,15.838,120.034,11.328Zm-8.8,14.449a10.326,10.326,0,0,1-5.138-1.221,18.3,18.3,0,0,0,1.78-2.51l5.995-10.277.959.1C123.187,13.6,119.865,25.776,111.229,25.776ZM115.068,9.7l2.876-4.884c2.6-4.443,5.928-1.831,4.146,1.492C120.72,8.853,118.7,9.632,115.068,9.7Z" fill="#fff"/><path d="M259.59,18.79l-.237.272a16.755,16.755,0,0,1-6.512,4.952c.582-.916,1.028-1.9,1.473-2.646l3.941-6.681c3.324-5.6-2.056-7.462-5.688-4.239l.72-1.222h-3.564L244.151,18.8l-.012-.006-.24.272a7.708,7.708,0,0,1-5.379,2.611l3.358-5.731c2.159-3.7.172-7.19-3.187-7.19-2.741,0-4.864,1.086-6.92,4.614l-1.748,3.018-1.455,2.464-.19.215c-2.569,2.951-5.07,5.291-6.648,5.291-.788,0-1.232-.542-.412-1.933l5.141-8.92c1.541-2.68.069-4.613-1.919-4.613-1.541,0-3.188.848-4.968,2.681l5.688-9.8H221.7l-9.939,17.066-.2.231a22.107,22.107,0,0,1-4.283,3.832c1.134-3.358.893-8.513,3.085-13.023l-2.673-1.426c-1.473,2-4.693,6.614-7.914,10.344h0l-.24.272c-2.569,2.951-5.071,5.291-6.646,5.291-.789,0-1.235-.542-.413-1.933l3.564-6.173c1.233-2.136.65-3.391-.515-4.782l-1.987-2.373a1.366,1.366,0,0,1,.2-2.035l-1.85-2c-2.022,1.8-2.192,3.8-.924,5.427l.307.407c-1.575,2.2-3.7,5.189-6.029,7.9l-.239.272c-2.57,2.951-5.86,5.291-8.36,5.291-2.193,0-3.494-1.356-1.851-4.205l.342-.611c2.3.95,6.614.508,9.286-4.069l.514-.882c1.919-3.256.068-5.7-2.845-5.7a7.546,7.546,0,0,0-6.681,4.07l-3.452,5.864-.214.242a7.632,7.632,0,0,1-5.379,2.611l3.36-5.731a8.53,8.53,0,0,0,1.335-4.036,3.033,3.033,0,0,0-3.222-3.154,4.168,4.168,0,0,0-2.329.78l4.524-7.767H166.4l-9.989,17.085-.188.212c-2.57,2.951-5.069,5.291-6.647,5.291-.788,0-1.234-.542-.412-1.933l3.563-6.173c1.233-2.136.65-3.391-.514-4.782l-1.987-2.373a1.366,1.366,0,0,1,.205-2.035l-1.85-2c-2.023,1.8-2.193,3.8-.925,5.427l.308.407c-1.576,2.2-3.7,5.189-6.029,7.9l-.24.272c-2.57,2.951-5.07,5.291-6.646,5.291-.79,0-1.236-.542-.413-1.933l5.756-9.971h-2.023a3.682,3.682,0,0,0-3.733-3.562c-1.92,0-4.59,1.492-6.1,4.07l-5,8.546c-1.509,2.612-.446,5.02,2.432,5.02a8.752,8.752,0,0,0,4.934-2.307c.171,1.357,1.269,2.307,3.085,2.307,2.945,0,6.337-3.12,9.286-6.512h0c1.713-1.967,3.048-3.73,5.893-7.563l.48.577a1.721,1.721,0,0,1,.205,2l-3.77,6.478c-1.506,2.612-.444,5.02,2.433,5.02,2.066,0,4.351-1.536,6.547-3.62v.025c0,2.408,1.818,3.764,4.112,3.764a7.9,7.9,0,0,0,6.065-3.289,6.135,6.135,0,0,0,.787.034,10.539,10.539,0,0,0,4.732-1.392c-.187,2.546,1.679,4.479,4.828,4.479,4.043,0,8.051-3.12,11-6.512,1.715-1.967,3.049-3.73,5.893-7.563l.48.577a1.721,1.721,0,0,1,.205,2l-3.77,6.478c-1.508,2.612-.445,5.02,2.433,5.02,2.947,0,6.339-3.12,9.286-6.512h0c2.021-2.306,3.8-4.782,5.07-6.444-1.4,3.664-.65,10.243-4.042,10.243a1.987,1.987,0,0,1-1.68-1.289l-2.227,1.154a3.873,3.873,0,0,0,3.907,2.849,9.794,9.794,0,0,0,.991-.067c.036,0,.069-.034.105-.034a12.62,12.62,0,0,0,5.473-2.343l-1.225,2.106h3.6l5.412-9.326c5.483-6.816,7.915-5.935,6.372-3.324l-4.625,7.97c-1.508,2.612-.445,5.02,2.434,5.02,2.069,0,4.359-1.543,6.56-3.635-.007,4.5,6.3,5.375,10.161.548h.789A9.9,9.9,0,0,0,242,22.508l-6.49,11.144h3.6L249.761,15.3c3.973-5.359,6.475-3.391,5.55-1.8l-5.378,9.225a1.38,1.38,0,0,1-2.571,0l-2.022.95a3.873,3.873,0,0,0,3.906,2.849h.206c5.174-.1,8.566-3.154,11.478-6.512A2.242,2.242,0,0,0,259.59,18.79Zm-81.135-4.952c2.056-3.493,5.686-2.916,3.563.745l-.514.882c-1.714,2.883-4.01,2.815-5.345,2.341ZM132.783,19.4c-2.158,3.357-4.283,4.952-5.757,4.952-.788,0-1.233-.542-.411-1.933l4.97-8.58c1.918-3.29,5.72-2.442,3.973.745Zm26.827,4.816a1.324,1.324,0,0,1-1.439-1.357,3.95,3.95,0,0,1,.618-1.831l1.267-2.17a5.181,5.181,0,0,0,2.261,3.662A3.35,3.35,0,0,1,159.61,24.216Zm3.734-3.426a3.794,3.794,0,0,1-1.508-3.188c0-2.51,2.469-6.613,4.488-6.613a1.351,1.351,0,0,1,1.337,1.527,4.26,4.26,0,0,1-.686,2.1Zm73.187-1.763h-.17a2.1,2.1,0,0,0-2.092,2.1,2.293,2.293,0,0,0,.344,1.188l-.035.067c-1.677,2.848-5.755,2.306-3.631-1.357l2.707-4.647,1.713-2.883c2.5-4.205,5.928-2.544,3.77,1.119Z" fill="#fff"/><rect width="8.096" height="8.014" transform="matrix(0.707, -0.707, 0.707, 0.707, 0.004, 72.639)" fill="#fff"/><rect width="8.095" height="8.014" transform="translate(352.51 72.622) rotate(-44.99)" fill="#fff"/><path d="M46.868,72.843h2.086V64.591h3.28V62.525H46.868Z" fill="#636466"/><path d="M61.782,74.358V61.783a4.52,4.52,0,0,0-2.567-4.034,4.381,4.381,0,0,1,.481,1.969V72.294a4.414,4.414,0,0,1-1.664,3.48A5.132,5.132,0,0,1,59.7,79.437V93.419a4.61,4.61,0,0,1-4.564,4.517H41.552V100H57.218a4.61,4.61,0,0,0,4.564-4.517V81.5a5.132,5.132,0,0,0-1.664-3.664A4.413,4.413,0,0,0,61.782,74.358Z" fill="#636466"/><path d="M46.868,90.548h2.086V82.236h3.28V80.17H46.868Z" fill="#636466"/><path d="M79.928,90.548h2.086V64.591h3.279V62.525H79.928Z" fill="#636466"/><path d="M92.275,57.749a4.374,4.374,0,0,1,.48,1.969v33.7a4.611,4.611,0,0,1-4.563,4.517h-11.1a4.515,4.515,0,0,1-1.991-.477A4.576,4.576,0,0,0,79.178,100h11.1a4.611,4.611,0,0,0,4.564-4.517v-33.7A4.527,4.527,0,0,0,92.275,57.749Z" fill="#636466"/><path d="M112.986,72.843h2.086V64.591h3.281V62.525h-5.367Z" fill="#636466"/><path d="M125.249,81.807a4.426,4.426,0,0,0,2.59-4.029v-16a4.511,4.511,0,0,0-2.57-4.061,4.464,4.464,0,0,1,.484,2v16a4.425,4.425,0,0,1-2.59,4.029l3.084,18.193H120.58l.352,2.066h7.4Z" fill="#636466"/><path d="M115.823,80.17h-2.837V97.934h-5.313V100h7.4V82.236h1.1Z" fill="#636466"/><path d="M145.062,90.548h2.086V64.591h3.279V62.525h-5.365Z" fill="#636466"/><path d="M157.408,57.749a4.362,4.362,0,0,1,.481,1.969v33.7a4.61,4.61,0,0,1-4.563,4.517h-11.1a4.507,4.507,0,0,1-1.989-.477A4.573,4.573,0,0,0,144.31,100h11.1a4.611,4.611,0,0,0,4.563-4.517v-33.7A4.523,4.523,0,0,0,157.408,57.749Z" fill="#636466"/><path d="M178.12,90.548h2.086V64.591h3.28V62.525H178.12Z" fill="#636466"/><path d="M190.467,57.749a4.375,4.375,0,0,1,.481,1.969v33.7a4.611,4.611,0,0,1-4.564,4.517H172.8V100h15.666a4.611,4.611,0,0,0,4.564-4.517v-33.7A4.521,4.521,0,0,0,190.467,57.749Z" fill="#636466"/><path d="M211.55,57.265v40.67h-5.314V100h7.4V57.265Z" fill="#636466"/><path d="M244.485,57.265v40.67h-5.914l.6,2.066h7.4V57.265Z" fill="#636466"/><path d="M231.656,79.254v18.68h-5.314V100h7.4V86.433Z" fill="#636466"/><path d="M263.965,82.235h6.117V80.17h-8.2a4.58,4.58,0,0,1-2-.473A4.542,4.542,0,0,0,263.965,82.235Z" fill="#636466"/><path d="M266.8,84.981l-2.086.482v5.084H266.8Z" fill="#636466"/><path d="M277.063,57.749a4.375,4.375,0,0,1,.482,1.969v8.668l-5.376,1.232v2.543l7.461-1.711V61.782A4.519,4.519,0,0,0,277.063,57.749Z" fill="#636466"/><path d="M277.063,75.392a4.374,4.374,0,0,1,.482,1.968V93.417a4.612,4.612,0,0,1-4.565,4.517h-11.1a4.515,4.515,0,0,1-1.99-.477A4.574,4.574,0,0,0,263.964,100h11.1a4.612,4.612,0,0,0,4.565-4.517V79.426A4.518,4.518,0,0,0,277.063,75.392Z" fill="#636466"/><path d="M264.716,62.525V72.843H266.8V64.591h3.281V62.525Z" fill="#636466"/><path d="M298.456,80.17h-.68V97.934h-5.315V100h7.4V84.611Z" fill="#636466"/><path d="M313.615,57.265h-2.756l-6.238,19.242,6.908,21.428h-6.015l.578,1.822.061.244h7.462l-6.908-21.428Z" fill="#636466"/><path d="M331.021,57.265v40.67h-5.313V100h7.4V57.265Z" fill="#636466"/><rect width="8.096" height="2.922" transform="translate(362.193 82.218) rotate(-45.005)" fill="#636466"/><rect width="8.097" height="2.922" transform="translate(9.689 82.234) rotate(-45)" fill="#636466"/><path d="M55.731,68.369a4.417,4.417,0,0,1-1.664,3.481,5.127,5.127,0,0,1,1.664,3.662V89.492a4.61,4.61,0,0,1-4.564,4.517H35.5V51.276H51.168a4.569,4.569,0,0,1,4.564,4.517V68.369ZM48.269,58.6H42.9V68.918h5.366Zm0,17.644H42.9V86.623h5.366Z" fill="#fff"/><path d="M84.229,51.276a4.569,4.569,0,0,1,4.563,4.517v33.7a4.611,4.611,0,0,1-4.563,4.518h-11.1a4.571,4.571,0,0,1-4.566-4.518v-33.7a4.531,4.531,0,0,1,4.566-4.517Zm-2.9,7.325H75.963V86.623h5.365Z" fill="#fff"/><path d="M114.881,94.009l-3.022-17.765h-2.837V94.009h-7.4V51.276h15.665a4.516,4.516,0,0,1,4.5,4.517v16a4.422,4.422,0,0,1-2.589,4.028l3.084,18.193ZM114.389,58.6h-5.367V68.918h5.367Z" fill="#fff"/><path d="M149.362,51.276a4.569,4.569,0,0,1,4.563,4.517v33.7a4.611,4.611,0,0,1-4.563,4.518h-11.1a4.571,4.571,0,0,1-4.565-4.518v-33.7a4.531,4.531,0,0,1,4.565-4.517Zm-2.9,7.325H141.1V86.623h5.365Z" fill="#fff"/><path d="M182.42,51.276a4.57,4.57,0,0,1,4.564,4.517v33.7a4.611,4.611,0,0,1-4.564,4.518H166.755V51.276Zm-2.9,7.325h-5.366V86.623h5.366Z" fill="#fff"/><path d="M200.186,51.276h7.4V94.009h-7.4Z" fill="#fff"/><path d="M240.52,51.276V94.009h-7.4l-5.428-18.68v18.68h-7.4V51.276h7.339l5.428,17.52V51.276Z" fill="#fff"/><path d="M269.016,68.918a4.573,4.573,0,0,1,4.565,4.518V89.492a4.612,4.612,0,0,1-4.565,4.518h-11.1a4.572,4.572,0,0,1-4.565-4.518V80.7l7.4-1.71v7.63h5.367V76.245h-8.2a4.533,4.533,0,0,1-4.565-4.519V55.794a4.531,4.531,0,0,1,4.565-4.517h11.1a4.57,4.57,0,0,1,4.565,4.517v8.667l-7.462,1.711V58.6h-5.367V68.918Z" fill="#fff"/><path d="M300.657,72.582l6.907,21.428H300.1l-.061-.244L294.49,76.245h-.68V94.009h-7.4V51.276h7.4V68.918h.557l5.674-17.642h7.523Z" fill="#fff"/><path d="M319.656,51.276h7.4V94.009h-7.4Z" fill="#fff"/></g></svg>